<?xml version="1.0" standalone="no"?>
<!DOCTYPE svg PUBLIC "-//W3C//DTD SVG 20010904//EN"
 "http://www.w3.org/TR/2001/REC-SVG-20010904/DTD/svg10.dtd">
<svg version="1.0" xmlns="http://www.w3.org/2000/svg"
 width="24px" height="24px" viewBox="0 0 24.000000 24.000000"
 preserveAspectRatio="xMidYMid meet">

<g transform="translate(0.000000,24.000000) scale(0.100000,-0.100000)"
fill="#000000" stroke="none">
<path fill="#1976D2" d="M85 211 c-6 -5 -21 -11 -35 -13 -24 -3 -25 -6 -25 -78 l0 -75 95 0
95 0 0 75 c0 72 -1 75 -25 78 -14 2 -29 8 -35 13 -12 12 -58 12 -70 0z m69
-57 c31 -30 9 -84 -34 -84 -10 0 -26 7 -34 16 -31 30 -9 84 34 84 10 0 26 -7
34 -16z"/>
<path fill="#1976D2" d="M94 136 c-10 -26 4 -48 28 -44 33 4 33 52 0 56 -13 2 -25 -3 -28 -12z"/>
</g>
</svg>
